<svg width="394" height="114" viewBox="0 0 394 114" fill="none" xmlns="http://www.w3.org/2000/svg">
<g clip-path="url(#clip0_2002_15)">
<path d="M22.0921 0.589655C16.6887 3.48177 1.12571 12.5512 0.647286 13.0847L0 13.7867V50.7946C0 79.9404 0.0844286 87.8867 0.365857 88.2517C0.759857 88.7852 44.4094 113.719 44.9441 113.719C45.3663 113.719 88.5093 89.2064 89.2691 88.5044C89.7194 88.1113 89.7757 87.0724 89.832 75.9813L89.9164 63.8793L100.329 57.9266C106.042 54.6695 110.883 51.7773 111.08 51.4965C111.361 51.1034 111.446 48.2394 111.446 38.3276V25.636L110.827 25.0744C109.645 24.0074 88.8188 12.2704 88.0871 12.2704C87.2428 12.2704 66.2764 24.1759 65.3759 25.1586L64.7286 25.8606V37.766V49.6433L55.8354 54.7256C50.9386 57.5335 46.886 59.8079 46.8297 59.8079C46.7734 59.8079 46.7171 49.4468 46.7171 36.8113C46.7171 24.1478 46.6327 13.6182 46.5483 13.3655C46.3794 12.9443 24.0059 -4.02331e-07 23.4711 -4.02331e-07C23.3304 -4.02331e-07 22.7113 0.280788 22.0921 0.589655ZM32.308 8.87291C37.0641 11.5966 41.0323 13.899 41.1449 14.0113C41.2574 14.0956 37.2893 16.4823 32.3643 19.3182L23.3586 24.4286L14.4373 19.3463C9.51228 16.5384 5.45971 14.2079 5.40343 14.1798C5.26271 14.0675 22.9083 3.98719 23.3023 3.95911C23.4711 3.93103 27.5237 6.14926 32.308 8.87291ZM97.2054 21.0872C105.001 25.5236 106.07 26.2256 105.62 26.5064C105.339 26.703 101.286 29.0335 96.5863 31.701L88.0871 36.5305L79.1377 31.4483C74.2409 28.6404 70.1883 26.3099 70.132 26.2537C70.0476 26.1695 87.862 16.0049 88.1153 16.0049C88.2278 16.0049 92.3086 18.3074 97.2054 21.0872ZM21.67 51.6931C21.67 73.7069 21.7263 76.0655 22.1203 76.4025C22.3736 76.599 27.2141 79.3788 32.899 82.5517L43.1993 88.336L43.2837 98.2759C43.3119 103.751 43.2837 108.384 43.2274 108.581C43.143 108.749 35.1786 104.369 23.3586 97.63L3.63043 86.3424L3.65857 51.8616C3.65857 32.9084 3.65857 17.3527 3.65857 17.2966C3.65857 17.2123 7.71114 19.4586 12.6643 22.2665L21.6419 27.3768L21.67 51.6931ZM43.2837 39.7596L43.1993 61.9138L34.3343 67.0241C29.4656 69.832 25.3849 72.1345 25.2441 72.1345C25.1316 72.1626 25.0753 62.0823 25.1034 49.7837L25.1879 27.4049L34.0529 22.3227C38.9216 19.5148 43.0023 17.2966 43.143 17.4089C43.2556 17.4931 43.3119 27.5453 43.2837 39.7596ZM86.3423 49.6714C86.3986 57.7862 86.3423 59.836 86.0608 59.7236C85.8638 59.6394 81.8394 57.365 77.1114 54.6695L68.5279 49.7837L68.3871 39.5911C68.3027 34.0034 68.2746 29.3985 68.3309 29.3704C68.359 29.3143 72.4116 31.5606 77.3366 34.3685L86.2578 39.4788L86.3423 49.6714ZM108.069 39.4507V49.4187L107.027 50.0926C105.592 51.0192 90.1134 59.8079 89.9164 59.8079C89.832 59.8079 89.8038 55.231 89.832 49.6433L89.9164 39.4788L98.7814 34.3966C103.65 31.5887 107.731 29.3424 107.872 29.3985C107.984 29.4547 108.069 34.0034 108.069 39.4507ZM84.4286 62.8965C84.4286 62.9808 83.3873 63.6266 82.0927 64.3286C80.8263 65.0586 71.9613 70.0847 62.3646 75.5039L44.9723 85.3596L35.9947 80.3616C31.0697 77.6379 27.0453 75.3355 27.0453 75.2512C27.0171 75.167 35.9103 70.0566 46.7734 63.8512L66.5297 52.6197L75.4791 57.6739C80.376 60.4818 84.4004 62.8123 84.4286 62.8965ZM86.3986 76.1498V86.3424L67.9087 96.8719C57.7491 102.656 48.8279 107.738 48.068 108.188L46.7171 108.946V98.6409V88.3079L66.3609 77.1606C77.1396 71.0394 86.0608 66.0414 86.2016 66.0133C86.3141 65.9852 86.3986 70.5621 86.3986 76.1498Z" fill="white"/>
<path d="M140.151 56.298V86.202H154.504H168.857V81.8497V77.4975H159.429H150.001V51.9458V26.3941H145.076H140.151V56.298Z" fill="white"/>
<path d="M384.431 56.298V86.202H389.075H393.719V56.298V26.3941H389.075H384.431V56.298Z" fill="white"/>
<path d="M186.165 46.0493C183.491 46.7513 182.281 47.2848 180.058 48.7729C171.305 54.5291 168.35 66.7715 173.388 76.3744C175.471 80.3616 178.313 83.1695 182.225 85.0788C189.486 88.6729 197.535 87.7463 202.431 82.7764L204.036 81.1197V83.6749V86.202H208.679H213.323V66.266V46.3301H208.679H204.036V49.0256V51.6931L202.488 50.0365C200.827 48.2394 198.266 46.7232 195.621 45.937C193.482 45.3192 188.726 45.3754 186.165 46.0493ZM197.112 54.7256C201.756 57 204.317 61.6892 203.951 67.2488C203.613 72.3872 200.658 76.6552 196.24 78.3399C193.989 79.2104 190.189 79.2384 187.994 78.368C183.21 76.5429 180.255 71.8818 180.283 66.266C180.311 62.4192 181.381 59.5833 183.716 57.1966C186.334 54.501 188.585 53.6025 192.525 53.7148C194.917 53.771 195.424 53.8833 197.112 54.7256Z" fill="white"/>
<path d="M262.911 46.0493C261.785 46.3581 260.321 46.8355 259.646 47.1443C256.072 48.7167 252.132 52.4512 250.246 56.1015C244.646 66.8276 248.642 79.9685 259.055 85.163C266.091 88.6729 274.365 87.6901 279.205 82.7763L280.866 81.0916V83.6468V86.202H285.509H290.153V66.266V46.33H285.509H280.866V49.0256V51.6931L279.318 50.0364C277.601 48.1832 274.899 46.6108 272.254 45.9089C269.946 45.3192 265.5 45.3754 262.911 46.0493ZM273.633 54.5571C280.05 57.5054 282.695 65.7044 279.402 72.4433C275.125 81.1759 262.742 81.2882 258.492 72.6399C254.89 65.2832 257.986 56.6911 265.162 54.136C267.413 53.3497 271.438 53.5463 273.633 54.5571Z" fill="white"/>
<path d="M353.333 45.937C350.435 46.6389 346.776 48.6044 344.525 50.6823C339.684 55.1749 337.517 60.5941 337.799 67.4734C337.967 71.5168 338.418 73.4261 340.022 76.6552C343.512 83.5906 351.645 87.7463 360.651 87.2128C366.448 86.8759 370.191 85.135 374.919 80.6424L377.086 78.5645L373.99 76.1778L370.923 73.8192L369.037 75.532C366.758 77.6099 363.352 79.3507 360.735 79.8C358.399 80.2212 355.585 79.8281 353.362 78.8172C350.21 77.3852 347.395 73.8192 347.058 70.899L346.917 69.6355H362.536H378.155L378.324 68.1473C378.549 66.4064 378.184 62.8404 377.536 60.3695C375.735 53.4059 370.191 47.7621 363.437 46.0493C360.819 45.3754 355.894 45.3192 353.333 45.937ZM363.38 53.7148C364.281 54.164 365.576 55.0626 366.251 55.7645C367.686 57.1966 369.206 60.0325 369.431 61.7453L369.6 62.8966H358.258H346.917L347.114 61.6892C347.564 58.9094 349.703 55.6241 351.954 54.3044C354.093 53.069 355.332 52.7882 358.681 52.8724C361.439 52.9286 361.945 53.0128 363.38 53.7148Z" fill="white"/>
<path d="M220.921 66.266V86.202H225.565H230.209L230.265 70.899L230.349 55.568H238.454H246.531V50.963V46.33H233.726H220.921V66.266Z" fill="white"/>
<path d="M294.993 46.5827C295.022 46.7512 298.511 55.7084 302.676 66.5187L310.275 86.202H316.269C319.534 86.202 322.236 86.1458 322.236 86.0897C322.236 86.0335 325.669 77.1606 329.834 66.3783C334.028 55.5961 337.433 46.667 337.433 46.5547C337.433 46.4424 335.35 46.33 332.817 46.33H328.174L326.513 50.598C325.613 52.9566 322.967 59.7517 320.688 65.7044C318.38 71.6571 316.438 76.599 316.326 76.7113C316.241 76.8236 313.511 70.0847 310.275 61.6892L304.365 46.4704L299.637 46.3862C296.654 46.3581 294.909 46.4143 294.993 46.5827Z" fill="white"/>
</g>
<defs>
<clipPath id="clip0_2002_15">
<rect width="394" height="114" fill="white"/>
</clipPath>
</defs>
</svg>
