<svg width="413" height="120" viewBox="0 0 413 120" fill="none" xmlns="http://www.w3.org/2000/svg">
<path d="M96.2484 42.3563C95.05 41.9469 93.843 41.5656 92.6273 41.2125C92.8289 40.3922 93.0148 39.5672 93.1852 38.7375C95.9273 25.4016 94.1344 14.6578 88.0148 11.1211C82.1555 7.72737 72.5461 11.2641 62.8523 19.7203C61.8992 20.5547 60.9656 21.4141 60.0516 22.2985C59.4422 21.711 58.8172 21.136 58.1766 20.5735C48.0164 11.5313 37.8328 7.72268 31.7203 11.2711C25.8609 14.6719 24.1195 24.7711 26.5875 37.411C26.8344 38.661 27.1117 39.9055 27.4195 41.1446C25.9781 41.5547 24.5859 41.993 23.2547 42.4571C11.3578 46.6172 3.75 53.1399 3.75 59.9039C3.75 66.893 11.9156 73.9008 24.3211 78.15C25.3273 78.4922 26.343 78.8102 27.368 79.1039C27.0352 80.4305 26.7406 81.7719 26.4844 83.1282C24.1406 95.55 25.9687 105.41 31.8164 108.79C37.8563 112.28 47.9883 108.694 57.8648 100.045C58.6461 99.361 59.4273 98.6383 60.2086 97.8774C61.1961 98.8321 62.2117 99.7586 63.2555 100.657C72.818 108.902 82.2609 112.233 88.0992 108.844C94.1344 105.342 96.0961 94.7485 93.5484 81.8602C93.3531 80.8758 93.1281 79.8711 92.8734 78.8461C93.5859 78.6352 94.2836 78.4172 94.9664 78.1922C107.857 73.9102 116.255 66.9867 116.255 59.911C116.25 53.1141 108.398 46.5492 96.2484 42.3563ZM66.0141 23.3531C74.318 16.1086 82.0805 13.2492 85.6195 15.293C89.3859 17.4703 90.8508 26.25 88.4836 37.7649C88.3273 38.5149 88.1586 39.2625 87.9773 40.0078C83.0218 38.8807 77.9966 38.0851 72.9352 37.6266C70.0372 33.4521 66.8604 29.4782 63.4266 25.7321C64.2672 24.9164 65.1281 24.1235 66.0094 23.3531H66.0141ZM36.968 65.6836C37.9852 67.6524 39.0484 69.5969 40.1578 71.5172C41.2875 73.4766 42.4648 75.4071 43.6898 77.3086C40.2072 76.93 36.7464 76.3722 33.3211 75.6375C34.3148 72.4219 35.5383 69.0821 36.968 65.6836ZM36.968 54.3563C35.5617 51.0305 34.3711 47.7586 33.3937 44.5992C36.6047 43.8797 40.0266 43.2914 43.5938 42.8461C42.3984 44.7117 41.2484 46.6047 40.1437 48.525C39.0391 50.4453 37.9781 52.3891 36.9609 54.3563H36.968ZM39.5227 60.0211C41.0039 56.9321 42.5992 53.9024 44.3086 50.9321C46.0164 47.9633 47.8344 45.0625 49.7625 42.2297C53.1094 41.9766 56.5406 41.843 60.007 41.843C63.4734 41.843 66.9258 41.9766 70.2703 42.2321C72.1781 45.0586 73.9852 47.9492 75.6914 50.9039C77.3977 53.8586 79.0141 56.8742 80.5406 59.9508C79.0344 63.0508 77.4219 66.093 75.7031 69.0774C73.9984 72.0461 72.2016 74.9555 70.3125 77.8055C66.9727 78.0399 63.5156 78.1688 60 78.1688C56.4844 78.1688 53.093 78.0586 49.8141 77.8453C47.8719 75.0032 46.0391 72.0899 44.3156 69.1055C42.5922 66.1211 40.9922 63.093 39.5156 60.0211H39.5227ZM79.8633 71.4844C80.9961 69.5188 82.0836 67.5274 83.1258 65.5102C84.5544 68.7495 85.8155 72.0601 86.9039 75.4289C83.4384 76.2093 79.9343 76.8078 76.4062 77.2219C77.5969 75.3328 78.7492 73.4203 79.8633 71.4844ZM83.0789 54.3586C82.0414 52.3821 80.9625 50.4289 79.8422 48.4992C78.7484 46.5961 77.6086 44.7164 76.4227 42.8602C80.0109 43.3149 83.4539 43.9196 86.6812 44.6578C85.6436 47.9497 84.4413 51.1874 83.0789 54.3586ZM60.0539 29.175C62.3943 31.7323 64.6041 34.406 66.675 37.186C62.2453 36.975 57.8125 36.975 53.3766 37.186C55.5633 34.2938 57.8016 31.6102 60.0539 29.175ZM34.1391 15.436C37.9031 13.2516 46.2258 16.3735 54.9984 24.1711C55.5586 24.6703 56.1234 25.193 56.6859 25.7344C53.2344 29.48 50.0352 33.4504 47.1094 37.6196C42.0592 38.0746 37.0439 38.8575 32.0953 39.9633C31.8094 38.8133 31.5516 37.6555 31.3219 36.4899C29.2008 25.6547 30.6047 17.4867 34.1391 15.436ZM28.6523 74.4633C27.7148 74.1961 26.7891 73.9063 25.875 73.5938C20.3906 71.7188 15.8602 69.2719 12.75 66.6071C9.96563 64.2188 8.55469 61.8352 8.55469 59.9039C8.55469 55.8 14.6625 50.5641 24.8484 47.0133C26.1281 46.568 27.4188 46.161 28.7203 45.7922C30.2331 50.6538 32.0652 55.4103 34.2047 60.0305C32.0397 64.7146 30.1849 69.5359 28.6523 74.4633ZM54.6984 96.4172C50.332 100.242 45.9586 102.954 42.1031 104.32C38.6391 105.546 35.8805 105.581 34.2141 104.618C30.6656 102.567 29.1891 94.6477 31.2023 84.0258C31.4414 82.7758 31.7148 81.5258 32.0227 80.2758C37.0208 81.3525 42.0864 82.0878 47.1844 82.4766C50.1388 86.6674 53.3644 90.6604 56.8406 94.4297C56.1422 95.1164 55.4273 95.7774 54.6984 96.4172ZM60.1875 90.975C57.9094 88.5117 55.6359 85.786 53.4187 82.8563C55.5734 82.9407 57.7672 82.9828 60 82.9828C62.2922 82.9828 64.5609 82.9336 66.7969 82.8328C64.7335 85.6574 62.5275 88.375 60.1875 90.975ZM89.3719 97.6758C88.7016 101.295 87.3539 103.709 85.6875 104.674C82.1414 106.732 74.5594 104.058 66.3844 97.0055C65.4469 96.1992 64.5094 95.3344 63.5555 94.4274C66.964 90.6433 70.114 86.6343 72.9844 82.4274C78.1106 81.9931 83.2008 81.206 88.2187 80.0719C88.4484 81 88.6516 81.9094 88.8281 82.8C89.9555 88.4953 90.1172 93.6469 89.3719 97.6758ZM93.45 73.6196C92.8359 73.8235 92.2031 74.0203 91.5609 74.2125C89.9875 69.328 88.0839 64.5561 85.8633 59.9297C88.0006 55.365 89.8297 50.6623 91.3383 45.8531C92.4891 46.1883 93.607 46.5399 94.6828 46.9125C105.094 50.5031 111.445 55.8188 111.445 59.9039C111.445 64.2633 104.585 69.9211 93.45 73.6196Z" fill="white"/>
<path d="M59.9999 69.9727C61.9946 69.9792 63.9463 69.3936 65.6079 68.2902C67.2696 67.1867 68.5664 65.615 69.3343 63.7741C70.1021 61.9331 70.3064 59.9057 69.9212 57.9486C69.536 55.9915 68.5788 54.1927 67.1707 52.7799C65.7625 51.3672 63.9668 50.4041 62.011 50.0125C60.0551 49.621 58.0271 49.8187 56.1836 50.5805C54.3402 51.3423 52.7642 52.634 51.6554 54.292C50.5465 55.9501 49.9546 57.8999 49.9546 59.8945C49.9518 61.216 50.2095 62.5251 50.713 63.747C51.2164 64.9688 51.9557 66.0795 52.8886 67.0154C53.8216 67.9514 54.9298 68.6943 56.15 69.2017C57.3702 69.7092 58.6784 69.9711 59.9999 69.9727Z" fill="white"/>
<path d="M157.67 95V25.1818H182.557C187.966 25.1818 192.455 26.1136 196.023 27.9773C199.614 29.8409 202.295 32.4205 204.068 35.7159C205.841 38.9886 206.727 42.7727 206.727 47.0682C206.727 51.3409 205.83 55.1023 204.034 58.3523C202.261 61.5795 199.58 64.0909 195.989 65.8864C192.42 67.6818 187.932 68.5795 182.523 68.5795H163.67V59.5114H181.568C184.977 59.5114 187.75 59.0227 189.886 58.0455C192.045 57.0682 193.625 55.6477 194.625 53.7841C195.625 51.9205 196.125 49.6818 196.125 47.0682C196.125 44.4318 195.614 42.1477 194.591 40.2159C193.591 38.2841 192.011 36.8068 189.852 35.7841C187.716 34.7386 184.909 34.2159 181.432 34.2159H168.205V95H157.67ZM192.136 63.5L209.386 95H197.386L180.477 63.5H192.136ZM240.639 96.0568C235.48 96.0568 231.037 94.9545 227.31 92.75C223.605 90.5227 220.741 87.3977 218.719 83.375C216.719 79.3295 215.719 74.5909 215.719 69.1591C215.719 63.7955 216.719 59.0682 218.719 54.9773C220.741 50.8864 223.56 47.6932 227.173 45.3977C230.81 43.1023 235.06 41.9545 239.923 41.9545C242.878 41.9545 245.741 42.4432 248.514 43.4205C251.287 44.3977 253.776 45.9318 255.98 48.0227C258.185 50.1136 259.923 52.8295 261.196 56.1705C262.469 59.4886 263.105 63.5227 263.105 68.2727V71.8864H221.48V64.25H253.116C253.116 61.5682 252.571 59.1932 251.48 57.125C250.389 55.0341 248.855 53.3864 246.878 52.1818C244.923 50.9773 242.628 50.375 239.991 50.375C237.128 50.375 234.628 51.0795 232.491 52.4886C230.378 53.875 228.741 55.6932 227.582 57.9432C226.446 60.1705 225.878 62.5909 225.878 65.2045V71.1705C225.878 74.6705 226.491 77.6477 227.719 80.1023C228.969 82.5568 230.707 84.4318 232.935 85.7273C235.162 87 237.764 87.6364 240.741 87.6364C242.673 87.6364 244.435 87.3636 246.026 86.8182C247.616 86.25 248.991 85.4091 250.151 84.2955C251.31 83.1818 252.196 81.8068 252.81 80.1705L262.457 81.9091C261.685 84.75 260.298 87.2386 258.298 89.375C256.321 91.4886 253.832 93.1364 250.832 94.3182C247.855 95.4773 244.457 96.0568 240.639 96.0568ZM289.653 96.1591C286.335 96.1591 283.335 95.5455 280.653 94.3182C277.972 93.0682 275.847 91.2614 274.278 88.8977C272.733 86.5341 271.96 83.6364 271.96 80.2045C271.96 77.25 272.528 74.8182 273.665 72.9091C274.801 71 276.335 69.4886 278.267 68.375C280.199 67.2614 282.358 66.4205 284.744 65.8523C287.131 65.2841 289.563 64.8523 292.04 64.5568C295.176 64.1932 297.722 63.8977 299.676 63.6705C301.631 63.4205 303.051 63.0227 303.938 62.4773C304.824 61.9318 305.267 61.0455 305.267 59.8182V59.5795C305.267 56.6023 304.426 54.2955 302.744 52.6591C301.085 51.0227 298.608 50.2045 295.312 50.2045C291.881 50.2045 289.176 50.9659 287.199 52.4886C285.244 53.9886 283.892 55.6591 283.142 57.5L273.562 55.3182C274.699 52.1364 276.358 49.5682 278.54 47.6136C280.744 45.6364 283.278 44.2045 286.142 43.3182C289.006 42.4091 292.017 41.9545 295.176 41.9545C297.267 41.9545 299.483 42.2045 301.824 42.7045C304.188 43.1818 306.392 44.0682 308.438 45.3636C310.506 46.6591 312.199 48.5114 313.517 50.9205C314.835 53.3068 315.494 56.4091 315.494 60.2273V95H305.54V87.8409H305.131C304.472 89.1591 303.483 90.4545 302.165 91.7273C300.847 93 299.153 94.0568 297.085 94.8977C295.017 95.7386 292.54 96.1591 289.653 96.1591ZM291.869 87.9773C294.688 87.9773 297.097 87.4205 299.097 86.3068C301.119 85.1932 302.653 83.7386 303.699 81.9432C304.767 80.125 305.301 78.1818 305.301 76.1136V69.3636C304.938 69.7273 304.233 70.0682 303.188 70.3864C302.165 70.6818 300.994 70.9432 299.676 71.1705C298.358 71.375 297.074 71.5682 295.824 71.75C294.574 71.9091 293.528 72.0455 292.688 72.1591C290.71 72.4091 288.903 72.8295 287.267 73.4205C285.653 74.0114 284.358 74.8636 283.381 75.9773C282.426 77.0682 281.949 78.5227 281.949 80.3409C281.949 82.8636 282.881 84.7727 284.744 86.0682C286.608 87.3409 288.983 87.9773 291.869 87.9773ZM351.128 96.0568C346.06 96.0568 341.696 94.9091 338.037 92.6136C334.401 90.2955 331.605 87.1023 329.651 83.0341C327.696 78.9659 326.719 74.3068 326.719 69.0568C326.719 63.7386 327.719 59.0455 329.719 54.9773C331.719 50.8864 334.537 47.6932 338.173 45.3977C341.81 43.1023 346.094 41.9545 351.026 41.9545C355.003 41.9545 358.548 42.6932 361.662 44.1705C364.776 45.625 367.287 47.6705 369.196 50.3068C371.128 52.9432 372.276 56.0227 372.639 59.5455H362.719C362.173 57.0909 360.923 54.9773 358.969 53.2045C357.037 51.4318 354.446 50.5455 351.196 50.5455C348.355 50.5455 345.866 51.2955 343.73 52.7955C341.616 54.2727 339.969 56.3864 338.787 59.1364C337.605 61.8636 337.014 65.0909 337.014 68.8182C337.014 72.6364 337.594 75.9318 338.753 78.7045C339.912 81.4773 341.548 83.625 343.662 85.1477C345.798 86.6705 348.31 87.4318 351.196 87.4318C353.128 87.4318 354.878 87.0795 356.446 86.375C358.037 85.6477 359.366 84.6136 360.435 83.2727C361.526 81.9318 362.287 80.3182 362.719 78.4318H372.639C372.276 81.8182 371.173 84.8409 369.332 87.5C367.491 90.1591 365.026 92.25 361.935 93.7727C358.866 95.2955 355.264 96.0568 351.128 96.0568ZM407.983 42.6364V50.8182H379.381V42.6364H407.983ZM387.051 30.0909H397.244V79.625C397.244 81.6023 397.54 83.0909 398.131 84.0909C398.722 85.0682 399.483 85.7386 400.415 86.1023C401.369 86.4432 402.403 86.6136 403.517 86.6136C404.335 86.6136 405.051 86.5568 405.665 86.4432C406.278 86.3295 406.756 86.2386 407.097 86.1705L408.938 94.5909C408.347 94.8182 407.506 95.0455 406.415 95.2727C405.324 95.5227 403.96 95.6591 402.324 95.6818C399.642 95.7273 397.142 95.25 394.824 94.25C392.506 93.25 390.631 91.7045 389.199 89.6136C387.767 87.5227 387.051 84.8977 387.051 81.7386V30.0909Z" fill="white"/>
</svg>
