<svg width="318" height="132" viewBox="0 0 318 132" fill="none" xmlns="http://www.w3.org/2000/svg">
<g clip-path="url(#clip0_2003_33)">
<mask id="mask0_2003_33" style="mask-type:luminance" maskUnits="userSpaceOnUse" x="0" y="0" width="318" height="132">
<path d="M0.0422363 0.479492H317.777V131.989H0.0422363V0.479492Z" fill="white"/>
</mask>
<g mask="url(#mask0_2003_33)">
<path fill-rule="evenodd" clip-rule="evenodd" d="M33.2071 59.6356C26.3595 57.1084 22.6068 55.1428 22.6068 52.0539C22.6068 49.4326 24.7646 47.9352 28.6109 47.9352C35.6463 47.9352 42.8688 50.6499 47.8407 53.0831L50.6549 35.7673C46.715 33.8951 38.6476 30.8062 27.4852 30.8062C19.6055 30.8062 13.0387 32.8652 8.34891 36.7031C3.47056 40.7277 0.937819 46.5312 0.937819 53.5513C0.937819 66.2808 8.72389 71.7102 21.3876 76.2964C29.5487 79.1978 32.2693 81.2575 32.2693 84.4397C32.2693 87.5285 29.6422 89.3067 24.8582 89.3067C18.9484 89.3067 9.19316 86.4053 2.81416 82.6615L0 100.165C5.44047 103.253 15.5714 106.436 26.0781 106.436C34.4263 106.436 41.3681 104.47 46.0586 100.726C51.3113 96.6076 54.0319 90.524 54.0319 82.6615C54.0319 69.6505 46.0586 64.2218 33.2071 59.6356ZM99.8443 49.4326L102.658 32.2103H87.8018V11.3031L67.8269 14.5828L64.9424 32.2103L57.9168 33.3475L55.287 49.4326H64.9135V83.2231C64.9135 92.0214 67.1648 98.1057 71.7611 101.849C75.6073 104.938 81.1414 106.436 88.9274 106.436C94.9307 106.436 98.5892 105.407 101.122 104.751V86.4987C99.7148 86.8735 96.5257 87.5285 94.3679 87.5285C89.7717 87.5285 87.8018 85.1887 87.8018 79.8535V49.4326H99.8443ZM144.46 31.2043C137.894 31.2043 132.64 34.6441 130.577 40.8218L129.17 32.2103H108.814V105.032H132.078V57.7634C134.986 54.2063 139.113 52.9202 144.741 52.9202C145.961 52.9202 147.274 52.9202 148.869 53.201V31.7659C147.274 31.3917 145.867 31.2043 144.46 31.2043ZM166.223 25.0027C172.977 25.0027 178.418 19.4807 178.418 12.7415C178.418 5.90812 172.977 0.479492 166.223 0.479492C159.375 0.479492 153.935 5.90812 153.935 12.7415C153.935 19.4807 159.375 25.0027 166.223 25.0027ZM154.497 32.2103H177.855V105.032H154.497V32.2103ZM244.046 38.7621C239.918 33.4268 234.196 30.8062 226.88 30.8062C220.126 30.8062 214.216 33.6143 208.681 39.5111L207.462 32.2103H187.012V131.989L210.276 128.152V104.751C213.84 105.874 217.499 106.436 220.782 106.436C226.598 106.436 235.041 104.938 241.607 97.8249C247.892 90.9915 251.081 80.4151 251.081 66.4683C251.081 54.1129 248.736 44.753 244.046 38.7621ZM224.722 83.6906C222.846 87.2477 219.938 89.12 216.561 89.12C214.216 89.12 212.152 88.6517 210.276 87.7159V53.0831C214.216 48.9651 217.78 48.4969 219.094 48.4969C225.003 48.4969 227.911 54.862 227.911 67.3107C227.911 74.4241 226.88 79.9468 224.722 83.6906ZM317.777 67.9656C317.777 56.3593 315.244 47.1862 310.272 40.7277C305.207 34.1759 297.609 30.8062 287.947 30.8062C268.154 30.8062 255.865 45.408 255.865 68.8081C255.865 81.9124 259.148 91.7406 265.621 98.0116C271.437 103.628 279.786 106.436 290.573 106.436C300.516 106.436 309.709 104.096 315.526 100.258L312.993 84.3463C307.27 87.4351 300.611 89.12 293.106 89.12C288.603 89.12 285.508 88.1835 283.256 86.2179C280.817 84.1589 279.41 80.7892 278.942 76.0156H317.496C317.589 74.8924 317.777 69.6505 317.777 67.9656ZM278.754 61.788C279.41 51.3983 282.224 46.5312 287.571 46.5312C292.825 46.5312 295.545 51.4923 295.92 61.788H278.754Z" fill="white"/>
</g>
</g>
<defs>
<clipPath id="clip0_2003_33">
<rect width="318" height="132" fill="white"/>
</clipPath>
</defs>
</svg>
